<mxfile host="app.diagrams.net" modified="2023-09-23T20:12:42.011Z" agent="Mozilla/5.0 (Windows NT 10.0; Win64; x64) AppleWebKit/537.36 (KHTML, like Gecko) Chrome/116.0.0.0 Safari/537.36" version="21.8.1" etag="bWjDhJt6rKQRCejFY4d6" type="github">
  <diagram name="Sida-1" id="_PTDa-EJVC28QRKWP9Vb">
    <mxGraphModel>
      <root>
        <mxCell id="0" />
        <mxCell id="1" parent="0" />
      </root>
    </mxGraphModel>
  </diagram>
</mxfile>
